<?xml version="1.0" encoding="utf-8"?>
<!-- Generator: Adobe Illustrator 24.0.1, SVG Export Plug-In . SVG Version: 6.00 Build 0)  -->
<svg version="1.1" id="Layer_1" xmlns="http://www.w3.org/2000/svg" xmlns:xlink="http://www.w3.org/1999/xlink" x="0px" y="0px"
	 viewBox="0 0 1727 252" style="enable-background:new 0 0 1727 252;" xml:space="preserve">
<style type="text/css">
	.st0{fill:#550011;stroke:#000000;stroke-miterlimit:10;}
	.st1{fill:none;stroke:#736357;stroke-width:3;stroke-miterlimit:10;}
	.st2{fill:#6A0031;}
	.st3{fill:#7F1D00;stroke:#603813;stroke-miterlimit:10;}
	.st4{fill:none;stroke:#000000;stroke-miterlimit:10;}
	.st5{fill:#00D474;stroke:#00FF00;stroke-miterlimit:10;}
	.st6{fill:#FFFFFF;stroke:#FFFFFF;stroke-miterlimit:10;}
	.st7{fill:#15D9FF;stroke:#00FFFF;stroke-miterlimit:10;}
</style>
<g id="XMLID_11_">
	<polygon id="XMLID_13_" class="st0" points="142.08,125.83 250.63,70.42 141.54,14.87 33,70.42 	"/>
	<path id="XMLID_25_" class="st0" d="M250.09,70.42c1.34-0.94,8.86,5.37,10.2,14.22c1.21,8.18-4.03,12.48-1.48,21.06
		c1.21,3.89,3.35,6.98,2.82,7.51c-0.94,0.94-6.17-5.77-8.05-4.56c-1.61,1.07,0.67,7.11-0.27,7.51c-0.81,0.4-4.03-3.09-5.1-7.78
		c-1.74-7.65,4.29-11.14,5.1-21.06C253.85,77.53,248.88,71.23,250.09,70.42z"/>
</g>
<line id="XMLID_29_" class="st1" x1="281.15" y1="17.28" x2="281.15" y2="235.3"/>
<g id="XMLID_30_">
	<path id="XMLID_94_" class="st2" d="M335.19,130.54v-68.6h10.71c6.22,0,10.71,0.35,13.82,1.21c4.15,1.04,7.43,3.11,9.85,6.05
		c2.42,2.94,3.63,6.39,3.63,10.54c0,2.59-0.52,5.01-1.56,7.08c-1.04,2.25-2.94,4.15-5.36,6.05c4.15,1.9,7.26,4.32,9.16,7.43
		c1.9,2.94,2.94,6.39,2.94,10.37c0,3.8-1.04,7.43-2.94,10.54c-1.9,3.11-4.49,5.53-7.6,7.08c-3.11,1.56-7.43,2.25-12.96,2.25
		L335.19,130.54L335.19,130.54z M348.32,74.38v14.52h2.94c3.11,0,5.53-0.69,7.08-2.07c1.56-1.38,2.25-3.11,2.25-5.53
		c0-2.25-0.69-3.8-2.25-5.01c-1.56-1.21-3.63-1.9-6.74-1.9H348.32L348.32,74.38z M348.32,100.47v17.63h3.28
		c5.53,0,9.16-0.69,10.89-2.07c1.9-1.38,2.94-3.46,2.94-6.05c0-2.94-1.04-5.36-3.28-6.91c-2.25-1.73-5.88-2.59-11.06-2.59H348.32z"
		/>
	<path id="XMLID_98_" class="st2" d="M389.28,60.38h12.61v24.71c2.42-2.25,5.01-3.8,7.43-4.84s5.01-1.56,7.6-1.56
		c5.01,0,9.33,1.73,12.61,5.18c2.94,2.94,4.32,7.43,4.32,13.13v33.52h-12.61v-22.29c0-5.88-0.35-9.85-0.86-11.92
		c-0.52-2.07-1.56-3.63-2.94-4.67c-1.38-1.04-2.94-1.56-5.01-1.56c-2.59,0-4.84,0.86-6.74,2.59c-1.9,1.73-3.11,4.15-3.8,6.91
		c-0.35,1.56-0.52,5.01-0.52,10.54v20.22h-12.61L389.28,60.38L389.28,60.38z"/>
	<path id="XMLID_100_" class="st2" d="M483.8,79.91h12.61v50.63H483.8v-5.36c-2.42,2.25-4.84,4.15-7.43,5.01
		c-2.59,1.04-5.18,1.56-8.12,1.56c-6.57,0-12.27-2.59-17.11-7.6c-4.84-5.01-7.26-11.4-7.26-19.01c0-7.78,2.25-14.17,6.91-19.18
		c4.67-5.01,10.2-7.43,16.93-7.43c2.94,0,5.88,0.52,8.64,1.73c2.76,1.04,5.18,2.94,7.43,5.18L483.8,79.91L483.8,79.91z
		 M470.49,90.28c-3.97,0-7.26,1.38-9.85,4.15c-2.59,2.76-3.97,6.39-3.97,10.54c0,4.32,1.38,8.12,3.97,10.71
		c2.59,2.94,5.88,4.15,9.85,4.15c3.97,0,7.43-1.38,10.02-4.15c2.59-2.76,3.97-6.39,3.97-10.89c0-4.32-1.38-8.12-3.97-10.71
		C477.93,91.66,474.47,90.28,470.49,90.28z"/>
	<path id="XMLID_103_" class="st2" d="M509.38,79.91h12.79v24.37c0,4.84,0.35,8.12,1.04,10.02c0.69,1.9,1.73,3.28,3.11,4.32
		c1.56,1.04,3.28,1.56,5.36,1.56c2.25,0,3.97-0.52,5.53-1.56c1.56-1.04,2.59-2.42,3.28-4.49c0.52-1.56,0.86-4.67,0.86-9.33V80.08
		h12.61v21.6c0,8.81-0.69,14.86-2.07,18.14c-1.73,3.97-4.15,7.08-7.43,9.16c-3.28,2.25-7.43,3.11-12.61,3.11
		c-5.53,0-10.02-1.21-13.48-3.63c-3.46-2.42-5.88-6.05-7.26-10.37c-1.04-3.11-1.56-8.64-1.56-16.76L509.38,79.91L509.38,79.91z"/>
	<path id="XMLID_105_" class="st2" d="M568.13,61.25h12.61v18.66h7.43V90.8h-7.43v39.74h-12.61V90.8h-6.57V79.91h6.57V61.25z"/>
	<path id="XMLID_107_" class="st2" d="M595.26,60.38h12.61v24.71c2.42-2.25,5.01-3.8,7.43-4.84c2.42-1.04,5.01-1.56,7.6-1.56
		c5.01,0,9.33,1.73,12.61,5.18c2.94,2.94,4.32,7.43,4.32,13.13v33.52h-12.61v-22.29c0-5.88-0.35-9.85-0.86-11.92
		s-1.56-3.63-2.94-4.67c-1.38-1.04-2.94-1.56-5.01-1.56c-2.59,0-4.84,0.86-6.74,2.59s-3.11,4.15-3.8,6.91
		c-0.35,1.56-0.52,5.01-0.52,10.54v20.22h-12.27L595.26,60.38L595.26,60.38z"/>
	<path id="XMLID_109_" class="st2" d="M657.47,59c2.25,0,4.15,0.86,5.7,2.42c1.56,1.56,2.42,3.46,2.42,5.88s-0.86,4.15-2.25,5.88
		c-1.56,1.56-3.46,2.42-5.7,2.42c-2.25,0-4.15-0.86-5.7-2.42c-1.56-1.56-2.42-3.46-2.42-6.05c0-2.25,0.86-4.15,2.25-5.7
		C653.15,59.86,655.05,59,657.47,59z M651.07,79.91h12.61v50.63h-12.61V79.91z"/>
	<path id="XMLID_112_" class="st2" d="M675.44,60.38h12.61v40.44l18.66-20.91h15.9l-21.77,24.19l24.37,26.44h-15.72l-21.6-23.33
		v23.16h-12.61L675.44,60.38L675.44,60.38z"/>
	<path id="XMLID_114_" class="st2" d="M778.48,57.68h12.24l24.48,71.58h-12.54l-4.93-14.75h-25.98l-5.22,14.75H754L778.48,57.68z
		 M784.6,76.62l-8.51,24.64h17.17L784.6,76.62z"/>
	<path id="XMLID_117_" class="st2" d="M869.4,87.01l-9.85,6.04c-1.94-2.18-3.73-3.69-5.37-4.53c-1.64-0.84-3.88-1.34-6.27-1.34
		c-4.48,0-7.91,1.34-10.75,4.36c-2.84,3.02-4.03,6.71-4.03,11.4c0,4.53,1.19,8.05,3.88,10.9s6.12,4.19,10.45,4.19
		c5.37,0,9.4-2.01,12.39-6.04l9.4,7.04c-5.08,7.38-12.09,11.06-21.35,11.06c-8.21,0-14.78-2.68-19.56-8.21
		c-4.63-5.53-7.17-11.9-7.17-19.28c0-5.2,1.19-9.89,3.43-14.08c2.24-4.19,5.37-7.71,9.55-10.06c4.03-2.35,8.66-3.69,13.73-3.69
		c4.63,0,8.81,1.01,12.54,3.19C863.87,80.14,867.01,83.16,869.4,87.01z"/>
	<path id="XMLID_120_" class="st2" d="M914.93,76.45h11.79v52.98h-11.79v-5.53c-2.24,2.35-4.63,4.19-7.02,5.2
		c-2.39,1.01-4.78,1.51-7.61,1.51c-6.12,0-11.35-2.68-15.82-8.05c-4.48-5.2-6.72-11.9-6.72-19.78c0-8.05,2.09-14.75,6.42-20.12
		c4.33-5.2,9.55-7.88,15.67-7.88c2.84,0,5.37,0.5,7.91,1.84c2.54,1.17,4.78,3.02,6.87,5.36L914.93,76.45L914.93,76.45z
		 M902.39,87.35c-3.73,0-6.72,1.34-9.11,4.36c-2.39,2.85-3.73,6.71-3.73,11.06c0,4.53,1.19,8.38,3.73,11.23
		c2.39,3.02,5.37,4.36,9.11,4.36c3.73,0,6.87-1.34,9.26-4.36c2.39-2.85,3.73-6.71,3.73-11.4c0-4.53-1.19-8.38-3.73-11.23
		C909.11,88.69,906.12,87.35,902.39,87.35z"/>
	<path id="XMLID_126_" class="st2" d="M973.45,56h11.79v73.26h-11.79v-5.53c-2.24,2.35-4.63,4.19-7.02,5.2
		c-2.39,1.01-4.78,1.51-7.61,1.51c-6.12,0-11.35-2.68-15.82-8.05c-4.48-5.2-6.72-11.9-6.72-19.78c0-8.05,2.09-14.75,6.42-20.12
		c4.33-5.2,9.55-7.88,15.67-7.88c2.84,0,5.37,0.5,7.91,1.84c2.54,1.17,4.78,3.02,6.87,5.36L973.45,56L973.45,56z M961.06,87.35
		c-3.73,0-6.72,1.34-9.11,4.36c-2.39,2.85-3.73,6.71-3.73,11.06c0,4.53,1.19,8.38,3.73,11.23c2.39,3.02,5.37,4.36,9.11,4.36
		s6.87-1.34,9.26-4.36c2.39-2.85,3.73-6.71,3.73-11.4c0-4.53-1.19-8.38-3.73-11.23C967.78,88.69,964.64,87.35,961.06,87.35z"/>
	<path id="XMLID_129_" class="st2" d="M1044.36,106.63h-38.07c0.45,3.69,2.09,6.71,4.48,8.89c2.39,2.35,5.37,3.35,9.11,3.35
		c4.48,0,8.21-1.68,11.35-5.2l10,5.2c-2.54,4.02-5.37,6.87-8.81,8.89c-3.43,2.01-7.61,2.85-12.24,2.85
		c-7.32,0-13.44-2.51-18.06-7.88c-4.63-5.2-7.02-11.74-7.02-19.61c0-8.05,2.24-14.75,7.02-20.12c4.63-5.2,10.45-8.05,17.47-8.05
		c7.46,0,13.44,2.68,18.06,8.05c4.63,5.2,7.02,12.41,7.02,21.12L1044.36,106.63z M1032.57,96.23c-0.75-3.02-2.24-5.36-4.63-7.21
		c-2.24-1.84-4.93-2.68-7.91-2.68c-3.28,0-6.27,1.01-8.66,3.19c-1.49,1.34-2.99,3.52-4.33,6.87h25.53V96.23z"/>
	<path id="XMLID_132_" class="st2" d="M1053.91,76.45h11.79v6.04c2.09-2.51,4.33-4.36,6.72-5.53c2.39-1.34,5.22-1.84,8.06-1.84
		c2.99,0,5.52,0.84,7.91,2.35c2.39,1.51,4.33,4.02,5.67,7.04c1.94-3.19,4.18-5.53,7.02-7.04c2.84-1.51,5.67-2.35,8.96-2.35
		s6.27,0.84,8.81,2.51c2.54,1.68,4.33,4.02,5.37,6.87c1.19,2.85,1.64,7.38,1.64,13.75v31.01h-12.09v-26.82
		c0-6.04-0.6-10.06-2.09-12.24c-1.19-2.18-3.28-3.19-5.97-3.19c-2.09,0-3.73,0.67-5.37,2.01c-1.64,1.34-2.84,3.19-3.58,5.36
		s-1.19,6.04-1.19,10.9v23.97h-11.94v-25.65c0-4.69-0.3-8.05-0.9-10.23c-0.6-2.18-1.49-3.69-2.84-4.69
		c-1.19-1.01-2.84-1.51-4.63-1.51c-2.09,0-3.73,0.67-5.37,2.01s-2.84,3.19-3.58,5.53c-0.75,2.35-1.19,6.04-1.19,11.23v23.3h-11.79
		L1053.91,76.45L1053.91,76.45z"/>
	<path id="XMLID_134_" class="st2" d="M1131.99,76.45h12.09l12.24,33.19l13.58-33.19H1182l-29.56,72.26h-12.09l9.7-23.3
		L1131.99,76.45z"/>
	<path id="XMLID_136_" class="st2" d="M1227.81,77.9c4.7,0,9.22,1.3,13.38,3.53c4.16,2.42,7.41,5.77,9.76,9.86s3.43,8.74,3.43,13.58
		s-1.27,9.49-3.43,13.58c-2.35,4.28-5.6,7.44-9.58,10.04c-3.98,2.6-8.5,3.53-13.38,3.53c-7.23,0-13.38-2.6-18.44-8
		c-5.06-5.21-7.77-11.72-7.77-19.16c0-8,2.89-14.88,8.68-20.09C1215.33,80.13,1221.12,77.9,1227.81,77.9z M1227.99,89.99
		c-3.98,0-7.23,1.3-9.76,4.09s-3.98,6.32-3.98,10.79c0,4.46,1.27,8.18,3.98,10.97c2.53,2.79,5.78,4.09,9.76,4.09
		c3.98,0,7.23-1.3,9.94-4.09s3.98-6.32,3.98-10.79c0-4.46-1.27-8-3.98-10.79S1231.96,89.99,1227.99,89.99z"/>
	<path id="XMLID_139_" class="st2" d="M1258.72,79.2h4.52c0-6.88,0.18-10.79,0.18-11.9c0.36-2.98,1.45-5.21,3.43-6.88
		s4.7-2.42,8.32-2.42c2.53,0,5.6,0.56,8.86,1.86v9.86c-1.81-0.56-3.43-0.74-4.52-0.74c-1.45,0-2.53,0.19-3.25,0.93
		c-0.54,0.37-0.72,1.3-0.72,2.98v6.32h7.95v10.97h-7.95v40.92h-12.65V90.36h-4.52L1258.72,79.2L1258.72,79.2z"/>
	<path id="XMLID_141_" class="st2" d="M1323.46,60.08h13.17c7.08,0,12.18,0.72,15.31,2.17c3.13,1.45,5.6,3.8,7.41,6.88
		c1.81,3.26,2.63,7.06,2.63,11.58c0,4.89-1.15,9.05-3.62,12.49c-2.3,3.26-5.6,5.61-9.71,6.88c-2.3,0.72-6.75,1.09-13.01,1.09v30.04
		h-12.35L1323.46,60.08L1323.46,60.08z M1335.97,88.12h3.95c3.13,0,5.27-0.36,6.42-0.72s2.14-1.27,2.8-2.35
		c0.66-1.09,0.99-2.35,0.99-4.16c0-2.71-0.99-4.89-2.96-6.15c-1.48-0.9-3.95-1.45-7.9-1.45h-3.46L1335.97,88.12L1335.97,88.12z"/>
	<path id="XMLID_161_" class="st2" d="M1372.85,58.45h12.02v25.7c2.3-2.35,4.77-3.98,7.08-4.89s4.77-1.63,7.24-1.63
		c4.77,0,8.72,1.81,12.02,5.43c2.8,3.08,4.12,7.78,4.12,13.75v34.92h-11.85v-23.16c0-6.15-0.33-10.13-0.82-12.49
		c-0.49-2.17-1.48-3.8-2.63-4.89c-1.32-1.09-2.8-1.63-4.77-1.63c-2.47,0-4.44,0.9-6.26,2.71c-1.81,1.81-2.96,4.34-3.62,7.24
		c-0.33,1.63-0.49,5.25-0.49,10.86v21.17h-11.85v-73.1H1372.85z"/>
	<path id="XMLID_163_" class="st2" d="M1421.74,78.71h12.18l12.51,33.11l13.83-33.11h12.35l-30.13,72.02h-12.35l9.88-23.34
		L1421.74,78.71z"/>
	<path id="XMLID_165_" class="st2" d="M1508.83,86.13l-7.41,8.14c-2.96-3.26-5.76-4.89-8.23-4.89c-1.32,0-2.47,0.36-3.29,0.9
		c-0.82,0.54-1.15,1.45-1.15,2.35c0,0.72,0.33,1.45,0.82,1.99c0.49,0.54,1.65,1.45,3.62,2.35l4.44,2.35c4.61,2.53,7.9,5.07,9.55,7.6
		c1.65,2.53,2.63,5.61,2.63,9.23c0,4.7-1.48,8.69-4.61,11.76c-3.13,3.08-7.41,4.7-12.68,4.7c-6.91,0-12.68-2.9-16.79-9.05l7.41-8.87
		c1.48,1.81,3.13,3.26,4.94,4.34c1.98,1.09,3.62,1.63,5.1,1.63c1.48,0,2.8-0.36,3.95-1.27c0.99-0.9,1.48-1.81,1.48-2.9
		c0-1.99-1.81-3.98-5.27-5.97l-3.95-2.35c-7.74-4.34-11.69-9.59-11.69-16.1c0-4.16,1.48-7.78,4.44-10.68
		c2.96-2.9,6.75-4.34,11.19-4.34c3.13,0,6.09,0.72,8.72,2.35S1506.85,83.24,1508.83,86.13z"/>
	<path id="XMLID_167_" class="st2" d="M1523.81,57c2.14,0,3.95,0.9,5.43,2.53c1.48,1.63,2.3,3.62,2.3,6.15
		c0,2.35-0.82,4.34-2.14,6.15c-1.48,1.63-3.29,2.53-5.43,2.53s-3.95-0.9-5.43-2.53c-1.48-1.63-2.3-3.62-2.3-6.15
		c0-2.35,0.82-4.34,2.14-5.97C1519.86,57.9,1521.67,57,1523.81,57z M1517.88,78.71h12.02v52.84h-12.02V78.71z"/>
	<path id="XMLID_170_" class="st2" d="M1587.68,89.39l-10.04,6.15c-1.98-2.17-3.79-3.62-5.6-4.52c-1.81-0.9-3.95-1.27-6.42-1.27
		c-4.44,0-8.07,1.45-11.03,4.34c-2.96,2.9-4.12,6.7-4.12,11.4c0,4.52,1.32,8.14,3.95,10.86c2.63,2.9,6.26,4.34,10.54,4.34
		c5.43,0,9.55-1.99,12.68-6.15l9.55,7.06c-5.1,7.42-12.35,11.04-21.73,11.04c-8.4,0-15.15-2.71-19.92-8.14
		c-4.77-5.61-7.24-11.94-7.24-19.36c0-5.07,1.15-9.77,3.46-14.11c2.3-4.34,5.6-7.6,9.71-10.13c4.12-2.35,8.72-3.62,13.99-3.62
		c4.77,0,9.05,0.9,12.84,3.08C1582.08,82.51,1585.21,85.59,1587.68,89.39z"/>
	<path id="XMLID_172_" class="st2" d="M1628.01,86.13l-7.41,8.14c-2.96-3.26-5.76-4.89-8.23-4.89c-1.32,0-2.47,0.36-3.29,0.9
		s-1.15,1.45-1.15,2.35c0,0.72,0.33,1.45,0.82,1.99c0.49,0.54,1.65,1.45,3.62,2.35l4.44,2.35c4.61,2.53,7.9,5.07,9.55,7.6
		c1.65,2.53,2.63,5.61,2.63,9.23c0,4.7-1.48,8.69-4.61,11.76c-3.13,3.08-7.41,4.7-12.68,4.7c-6.91,0-12.68-2.9-16.79-9.05l7.41-8.87
		c1.48,1.81,3.13,3.26,4.94,4.34c1.98,1.09,3.62,1.63,5.1,1.63c1.48,0,2.8-0.36,3.95-1.27c0.99-0.9,1.48-1.81,1.48-2.9
		c0-1.99-1.81-3.98-5.27-5.97l-3.95-2.35c-7.74-4.34-11.69-9.59-11.69-16.1c0-4.16,1.48-7.78,4.44-10.68
		c2.96-2.9,6.75-4.34,11.19-4.34c3.13,0,6.09,0.72,8.72,2.35C1623.4,81.07,1626.04,83.24,1628.01,86.13z"/>
</g>
<g id="XMLID_31_">
	<path id="XMLID_2_" d="M548,192.64c1.95-4.48,11.7-31.11,12.51-32.91l0,0c2.93,6.72,11.05,27.98,13.49,32.68l-2.93,2.69
		c-0.65-1.79-4.23-11.42-4.71-12.09l-11.86,0.67c-0.49,0.9-3.25,10.07-3.74,11.64L548,192.64z M565.39,179.88
		c-0.33-1.12-4.55-12.09-4.88-12.76c-0.49,1.12-4.39,12.54-4.71,13.21L565.39,179.88z"/>
	<path id="XMLID_6_" d="M578.06,194.21c0.16-2.91,0.98-25.52,1.14-29.55h0.16c0.81,1.34,15.11,21.04,16.09,22.38
		c0-1.12,0-19.7,0.16-20.82l3.09,0.22c-0.16,2.46-0.65,18.8-0.81,28.88h-0.16c-0.81-1.12-15.76-21.71-16.25-22.16l0,0
		c0,0.67-0.16,20.37-0.16,21.71L578.06,194.21z"/>
	<path id="XMLID_8_" d="M614.14,181.67c0-8.95,4.71-16.12,12.19-16.12c6.01,0,10.4,4.92,10.4,13.65c0,6.27-3.25,15.67-12.19,15.67
		C617.88,194.88,614.14,188.84,614.14,181.67z M633.64,179.44c0-7.16-3.58-10.74-7.64-10.74c-5.36,0-8.61,5.6-8.61,12.31
		c0,6.04,2.93,10.74,7.64,10.74C629.58,191.75,633.64,187.27,633.64,179.44z"/>
	<path id="XMLID_20_" d="M641.77,194.21c0.16-2.91,0.98-25.52,1.14-29.55h0.16c0.81,1.34,15.11,21.04,16.09,22.38
		c0-1.12,0-19.7,0.16-20.82l3.09,0.22c-0.16,2.46-0.65,18.8-0.81,28.88h-0.16c-0.81-1.12-15.76-21.71-16.25-22.16l0,0
		c0,0.67-0.16,20.37-0.16,21.71L641.77,194.21z"/>
	<path id="XMLID_22_" d="M673.62,166.23c-0.16,0.9-0.33,8.73-0.33,13.88v10.97c0.81,0,4.39,0,7.8-0.22v3.81
		c-0.98,0-10.24-0.45-11.05-0.45c0.33-2.01,0.33-10.74,0.33-11.64v-5.37c0-0.67,0-10.3-0.16-10.97H673.62z"/>
	<path id="XMLID_24_" d="M690.03,182.12c0,4.03,0.16,11.19,0.16,12.09h-3.25c0-1.79,0.16-11.19,0.16-12.09v-4.25
		c0-0.67-0.16-10.52-0.16-11.42h3.25c0,0.67-0.16,6.72-0.16,11.64V182.12z"/>
	<path id="XMLID_27_" d="M698,194.21c0.16-2.91,0.98-25.52,1.14-29.55h0.16c0.81,1.34,15.11,21.04,16.09,22.38
		c0-1.12,0-19.7,0.16-20.82l3.09,0.22c-0.16,2.46-0.65,18.8-0.81,28.88h-0.16c-0.81-1.12-15.76-21.71-16.25-22.16l0,0
		c0,0.67-0.16,20.37-0.16,21.71L698,194.21z"/>
	<path id="XMLID_32_" d="M737.32,194.66c-0.98,0-10.4-0.45-11.05-0.45c0.16-2.01,0.16-10.74,0.16-11.64v-5.37
		c0-0.67,0-10.3-0.16-10.97c0.81,0,8.78-0.67,10.4-0.67l0.16,3.36c-1.3,0-6.99,0.22-7.48,0.22v9.85c0.65,0,4.55-0.22,6.34-0.45
		l0.16,3.36c-0.49,0-1.95,0-3.41,0c-1.46,0-2.76,0-3.09,0v9.4c0.81,0,4.88,0,7.8-0.22L737.32,194.66z"/>
	<path id="XMLID_34_" d="M770.15,187.94c0,1.57,0,5.15,0,5.6c-1.46,0.67-4.23,1.34-6.83,1.34c-6.99,0-11.21-5.15-11.21-11.64
		c0-4.7,3.58-13.65,14.95-17.68l0.65,3.58c-6.66,1.79-12.51,7.61-12.51,14.1c0,4.25,2.6,8.51,8.61,8.51c1.3,0,2.6-0.22,3.25-0.67
		v-6.49c0-1.12,0-2.46-0.16-2.69h3.09v3.13L770.15,187.94L770.15,187.94z"/>
	<path id="XMLID_36_" d="M773.24,193.09c1.63-4.03,10.56-26.64,11.21-28.2l0,0c2.6,5.6,10.08,23.73,12.03,27.98l-2.76,2.24
		c-0.49-1.57-3.74-9.4-4.06-10.07l-10.56,0.67c-0.49,1.34-2.76,8.28-3.25,9.63L773.24,193.09z M788.51,182.12
		c-0.33-0.9-3.9-9.85-4.23-10.52c-0.49,0.9-3.9,10.3-4.06,10.97L788.51,182.12z"/>
	<path id="XMLID_39_" d="M803.14,194.21c0.16-1.12,0.16-12.76,0.16-19.03v-5.6c-3.58,0-7.96,0.22-8.29,0.45v-3.81
		c0.81,0.22,8.29,0.45,8.61,0.45h2.76c0.65,0,7.31-0.22,8.29-0.45v3.81c0-0.22-5.85-0.45-8.29-0.45v6.27
		c0,8.06,0.33,17.68,0.33,18.36H803.14z"/>
	<path id="XMLID_41_" d="M829.79,194.66c-0.98,0-10.4-0.45-11.05-0.45c0.16-2.01,0.16-10.74,0.16-11.64v-5.37
		c0-0.67,0-10.3-0.16-10.97c0.81,0,8.78-0.67,10.4-0.67l0.16,3.36c-1.3,0-6.99,0.22-7.48,0.22v9.85c0.65,0,4.55-0.22,6.34-0.45
		l0.16,3.36c-0.49,0-1.95,0-3.41,0c-1.46,0-2.76,0-3.09,0v9.4c0.81,0,4.88,0,7.8-0.22L829.79,194.66z"/>
	<path id="XMLID_43_" d="M864.57,167.8c-0.33,1.12-7.64,24.4-8.45,26.64h-0.16c-1.14-2.91-6.5-14.33-7.31-16.12
		c-1.3,2.91-6.18,14.55-7.48,17.68H841c-0.97-3.13-6.34-23.73-7.64-28.2l2.93-1.57c0.97,4.7,4.88,19.92,5.36,22.16
		c0.81-2.24,4.71-11.42,6.99-16.79l0,0c1.95,4.48,5.53,12.09,6.99,15.89c0.49-2.01,5.36-18.8,5.85-21.04L864.57,167.8z"/>
	<path id="XMLID_45_" d="M863.43,193.09c1.63-4.03,10.56-26.64,11.21-28.2l0,0c2.6,5.6,10.08,23.73,12.03,27.98l-2.76,2.24
		c-0.49-1.57-3.74-9.4-4.06-10.07l-10.56,0.67c-0.49,1.34-2.76,8.28-3.25,9.63L863.43,193.09z M878.7,182.12
		c-0.33-0.9-3.9-9.85-4.23-10.52c-0.49,0.9-3.9,10.3-4.06,10.97L878.7,182.12z"/>
	<path id="XMLID_48_" d="M893.17,194.21c0-0.9,0.16-5.15,0.16-5.6v-2.91c0-5.15-1.79-9.4-3.9-12.31c-1.3-1.79-2.93-3.36-4.23-4.03
		l1.3-3.36c1.63,1.12,3.74,3.13,4.55,4.48c1.46,2.24,3.41,5.37,4.06,8.51l0,0c0.98-3.36,2.11-5.6,3.74-8.06
		c1.3-2.01,4.06-4.25,5.53-4.92l0.81,3.36c-1.63,0.67-3.74,2.46-5.53,4.92c-2.11,3.13-3.58,7.39-3.58,11.64v3.58
		c0,0.67,0.16,4.03,0.16,4.92h-3.09V194.21z"/>
	<path id="XMLID_50_" d="M923.07,194.21c0.16-1.12,0.16-12.76,0.16-19.03v-5.6c-3.58,0-7.96,0.22-8.29,0.45v-3.81
		c0.81,0.22,8.29,0.45,8.61,0.45h2.76c0.65,0,7.31-0.22,8.29-0.45v3.81c0-0.22-5.85-0.45-8.29-0.45v6.27
		c0,8.06,0.33,17.68,0.33,18.36H923.07z"/>
	<path id="XMLID_52_" d="M935.09,181.67c0-8.95,4.71-16.12,12.19-16.12c6.01,0,10.4,4.92,10.4,13.65c0,6.27-3.25,15.67-12.19,15.67
		C938.83,194.88,935.09,188.84,935.09,181.67z M954.6,179.44c0-7.16-3.58-10.74-7.64-10.74c-5.36,0-8.61,5.6-8.61,12.31
		c0,6.04,2.93,10.74,7.64,10.74C950.53,191.75,954.6,187.27,954.6,179.44z"/>
	<path id="XMLID_55_" d="M978.16,194.21c0-0.9,0.16-5.15,0.16-5.6v-2.91c0-5.15-1.79-9.4-3.9-12.31c-1.3-1.79-2.93-3.36-4.23-4.03
		l1.3-3.36c1.63,1.12,3.74,3.13,4.55,4.48c1.46,2.24,3.41,5.37,4.06,8.51l0,0c0.97-3.36,2.11-5.6,3.74-8.06
		c1.3-2.01,4.06-4.25,5.53-4.92l0.81,3.36c-1.63,0.67-3.74,2.46-5.53,4.92c-2.11,3.13-3.58,7.39-3.58,11.64v3.58
		c0,0.67,0.16,4.03,0.16,4.92h-3.09L978.16,194.21L978.16,194.21z"/>
	<path id="XMLID_57_" d="M990.51,181.67c0-8.95,4.71-16.12,12.19-16.12c6.01,0,10.4,4.92,10.4,13.65c0,6.27-3.25,15.67-12.19,15.67
		C994.25,194.88,990.51,188.84,990.51,181.67z M1010.01,179.44c0-7.16-3.58-10.74-7.64-10.74c-5.36,0-8.61,5.6-8.61,12.31
		c0,6.04,2.93,10.74,7.64,10.74C1005.95,191.75,1010.01,187.27,1010.01,179.44z"/>
	<path id="XMLID_60_" d="M1020.9,175.85c0,6.49,0.33,9.4,1.46,12.09c1.14,2.69,2.93,3.81,5.2,3.81c2.6,0,4.23-1.79,5.2-3.81
		c1.46-2.91,1.46-7.61,1.46-14.1v-1.34c0-2.69-0.16-5.15-0.16-6.72h3.09c0,0.9,0,3.58,0,6.72v1.79c0,7.61-0.49,12.54-2.76,16.12
		c-1.79,2.91-4.06,4.25-7.31,4.25c-1.63,0-4.88-0.22-7.15-4.7c-1.46-2.91-2.11-6.04-2.11-15.89v-2.24c0-1.79,0-4.7,0-5.6h3.09
		c0,1.12-0.16,2.91-0.16,6.49L1020.9,175.85L1020.9,175.85z"/>
	<path id="XMLID_62_" d="M1047.39,182.12c0,1.57,0.16,11.64,0.16,12.31h-3.25c0.16-0.9,0-13.65,0-14.55v-3.13
		c0-1.12,0-9.4-0.16-10.3c1.46,0,4.23,0,6.83,0.22c4.06,0.67,6.5,2.91,6.5,6.49c0,3.36-1.79,6.04-4.39,8.28
		c0.81,1.57,6.34,9.63,7.15,10.97l-2.28,2.91c-0.33-0.67-7.31-12.31-8.29-14.1c1.46-1.12,4.71-3.13,4.71-7.16
		c0-1.79-1.14-4.25-6.83-4.25v12.31H1047.39z"/>
	<path id="XMLID_64_" d="M1075.66,176.75c0-0.9,0-9.18-0.16-10.3c1.79,0,4.88,0,7.64,0.22c10.08,1.12,11.05,7.61,11.05,10.52
		c0,12.76-10.56,17.46-18.69,17.46c0.16-1.79,0.16-11.64,0.16-12.76V176.75z M1078.59,191.08c8.29-0.67,12.35-7.16,12.35-12.98
		c0-6.27-4.55-8.73-12.35-8.51V191.08z"/>
	<path id="XMLID_67_" d="M1102.97,182.12c0,1.57,0.16,11.64,0.16,12.31h-3.25c0.16-0.9,0-13.65,0-14.55v-3.13
		c0-1.12,0-9.4-0.16-10.3c1.46,0,4.23,0,6.83,0.22c4.06,0.67,6.5,2.91,6.5,6.49c0,3.36-1.79,6.04-4.39,8.28
		c0.81,1.57,6.34,9.63,7.15,10.97l-2.28,2.91c-0.33-0.67-7.31-12.31-8.29-14.1c1.46-1.12,4.71-3.13,4.71-7.16
		c0-1.79-1.14-4.25-6.83-4.25v12.31H1102.97z"/>
	<path id="XMLID_69_" d="M1131.89,194.66c-0.98,0-10.4-0.45-11.05-0.45c0.16-2.01,0.16-10.74,0.16-11.64v-5.37
		c0-0.67,0-10.3-0.16-10.97c0.81,0,8.78-0.67,10.4-0.67l0.16,3.36c-1.3,0-6.99,0.22-7.48,0.22v9.85c0.65,0,4.55-0.22,6.34-0.45
		l0.16,3.36c-0.49,0-1.95,0-3.41,0c-1.46,0-2.76,0-3.09,0v9.4c0.81,0,4.88,0,7.8-0.22L1131.89,194.66z"/>
	<path id="XMLID_71_" d="M1135.14,193.09c1.63-4.03,10.56-26.64,11.21-28.2l0,0c2.6,5.6,10.08,23.73,12.03,27.98l-2.76,2.24
		c-0.49-1.57-3.74-9.4-4.06-10.07l-10.56,0.67c-0.49,1.34-2.76,8.28-3.25,9.63L1135.14,193.09z M1150.42,182.12
		c-0.33-0.9-3.9-9.85-4.23-10.52c-0.49,0.9-3.9,10.3-4.06,10.97L1150.42,182.12z"/>
	<path id="XMLID_74_" d="M1159.84,193.99c0.49-1.79,6.83-27.53,6.99-28.43h0.16c0.97,2.46,6.5,17.01,7.48,19.47
		c0.97-2.24,7.31-17.01,7.96-18.13h0.16c0.97,3.13,6.34,22.83,7.48,27.09l-2.76,1.57c-0.65-2.91-4.88-19.47-5.36-20.82
		c-0.98,2.24-6.34,14.33-7.64,17.24l0,0c-1.79-4.48-5.36-13.88-6.66-17.46c-0.49,2.46-4.39,19.47-4.71,21.04L1159.84,193.99z"/>
	<path id="XMLID_76_" d="M1208.6,182.12c0,4.03,0.16,11.19,0.16,12.09h-3.25c0-1.79,0.16-11.19,0.16-12.09v-4.25
		c0-0.67-0.16-10.52-0.16-11.42h3.25c0,0.67-0.16,6.72-0.16,11.64V182.12z"/>
	<path id="XMLID_78_" d="M1216.56,194.21c0.16-2.91,0.98-25.52,1.14-29.55h0.16c0.81,1.34,15.11,21.04,16.09,22.38
		c0-1.12,0-19.7,0.16-20.82l3.09,0.22c-0.16,2.46-0.65,18.8-0.81,28.88h-0.16c-0.81-1.12-15.76-21.71-16.25-22.16l0,0
		c0,0.67-0.16,20.37-0.16,21.71L1216.56,194.21z"/>
	<path id="XMLID_80_" d="M1244.19,191.75c3.09-0.9,7.15-2.69,7.15-5.82c0-2.01-1.14-3.13-3.25-4.48c-2.6-1.79-4.55-3.58-4.55-6.49
		c0-4.48,4.71-8.28,9.1-9.4l0.65,3.36c-1.95,0.45-6.66,2.01-6.66,5.6c0,2.24,2.28,3.13,3.58,4.25c2.28,1.79,4.39,3.13,4.39,6.49
		c0,4.03-3.41,8.28-9.59,10.07L1244.19,191.75z"/>
	<path id="XMLID_82_" d="M1264.99,194.21c0.16-1.12,0.16-12.76,0.16-19.03v-5.6c-3.58,0-7.96,0.22-8.29,0.45v-3.81
		c0.81,0.22,8.29,0.45,8.61,0.45h2.76c0.65,0,7.31-0.22,8.29-0.45v3.81c0-0.22-5.85-0.45-8.29-0.45v6.27
		c0,8.06,0.32,17.68,0.32,18.36H1264.99z"/>
	<path id="XMLID_84_" d="M1283.68,182.12c0,4.03,0.16,11.19,0.16,12.09h-3.25c0-1.79,0.16-11.19,0.16-12.09v-4.25
		c0-0.67-0.16-10.52-0.16-11.42h3.25c0,0.67-0.16,6.72-0.16,11.64V182.12z"/>
	<path id="XMLID_86_" d="M1296.19,194.21c0.16-1.12,0.16-12.76,0.16-19.03v-5.6c-3.58,0-7.96,0.22-8.29,0.45v-3.81
		c0.81,0.22,8.29,0.45,8.61,0.45h2.76c0.65,0,7.31-0.22,8.29-0.45v3.81c0-0.22-5.85-0.45-8.29-0.45v6.27
		c0,8.06,0.33,17.68,0.33,18.36H1296.19z"/>
	<path id="XMLID_88_" d="M1313.58,175.85c0,6.49,0.32,9.4,1.46,12.09c1.14,2.69,2.93,3.81,5.2,3.81c2.6,0,4.23-1.79,5.2-3.81
		c1.46-2.91,1.46-7.61,1.46-14.1v-1.34c0-2.69-0.16-5.15-0.16-6.72h3.09c0,0.9,0,3.58,0,6.72v1.79c0,7.61-0.49,12.54-2.76,16.12
		c-1.79,2.91-4.06,4.25-7.31,4.25c-1.63,0-4.88-0.22-7.15-4.7c-1.46-2.91-2.11-6.04-2.11-15.89v-2.24c0-1.79,0-4.7,0-5.6h3.09
		c0,1.12-0.16,2.91-0.16,6.49L1313.58,175.85L1313.58,175.85z"/>
	<path id="XMLID_90_" d="M1340.72,194.21c0.16-1.12,0.16-12.76,0.16-19.03v-5.6c-3.58,0-7.96,0.22-8.29,0.45v-3.81
		c0.81,0.22,8.29,0.45,8.61,0.45h2.76c0.65,0,7.31-0.22,8.29-0.45v3.81c0-0.22-5.85-0.45-8.29-0.45v6.27
		c0,8.06,0.33,17.68,0.33,18.36H1340.72z"/>
	<path id="XMLID_92_" d="M1367.37,194.66c-0.97,0-10.4-0.45-11.05-0.45c0.16-2.01,0.16-10.74,0.16-11.64v-5.37
		c0-0.67,0-10.3-0.16-10.97c0.81,0,8.78-0.67,10.4-0.67l0.16,3.36c-1.3,0-6.99,0.22-7.48,0.22v9.85c0.65,0,4.55-0.22,6.34-0.45
		l0.16,3.36c-0.49,0-1.95,0-3.41,0c-1.46,0-2.76,0-3.09,0v9.4c0.81,0,4.88,0,7.8-0.22L1367.37,194.66z"/>
</g>
<path id="XMLID_18_" class="st3" d="M139.4,143.41v55.41c-1.48-0.81-70.84-35.96-70.84-35.96V72.3l16.77,8.59v35.02
	C105.99,126.37,138.32,142.74,139.4,143.41z"/>
<line id="XMLID_15_" class="st4" x1="68.56" y1="163.13" x2="68.56" y2="163.13"/>
<path id="XMLID_17_" class="st5" d="M214.53,107.05c0,2.68,0,55.41,0,55.41v0.13l-54.21,27.64c0,17.17,0,33.81,0,35.02l-16.5,8.45
	v-90.57c0.13-0.13,0.27-0.13,0.27-0.13L214.53,107.05z"/>
<polygon id="XMLID_5_" class="st6" points="198.97,132.54 198.97,153.07 160.33,172.66 160.33,152.27 "/>
<path id="XMLID_14_" class="st6" d="M85.33,133.48L85.33,133.48l37.17,18.78c0,1.88,0,20.26,0,20.26v0.13l-37.17-18.92
	c0-0.13,0-0.27,0-0.27S85.33,135.9,85.33,133.48z"/>
<path id="XMLID_10_" class="st7" d="M72.18,68.01l16.77,8.59c3.49-1.88,7.25-3.89,11.67-5.77c3.35-1.48,6.57-2.68,9.53-3.62
	c2.28,1.21,37.84,19.19,37.84,19.19l-21.06,10.6c0,0-0.13,0.13-0.27,0.13c0.13,0.13,0.27,0.13,0.27,0.13l16.77,8.59
	c0,0,0.13,0.13,0.27,0.13c3.09-1.61,65.07-33.27,70.17-35.82c-5.64-2.95-11.4-6.04-17.04-8.99c-8.86-4.56-20.66-9.39-35.02-11.67
	c-24.96-4.03-44.68,1.21-55.95,4.43c-14.36,4.03-25.9,9.53-34.35,14.36"/>
<line id="XMLID_12_" class="st4" x1="163.95" y1="78.2" x2="181.93" y2="69.08"/>
<path id="XMLID_16_" class="st0" d="M181.93,69.08c0,0-6.71-3.22-12.61-6.17c-6.04-1.07-13.15-2.01-21.2-2.01
	c-5.77,0-11.14,0.4-15.97,1.07c6.04,3.09,31.93,16.23,31.93,16.23"/>
</svg>
